{
  "accessors": [
    {
      "bufferView": 2,
      "componentType": 5126,
      "count": 31291,
      "max": [
        -1.6509590148925781,
        -2.4677739143371582,
        2.2871689796447754
      ],
      "min": [
        -6.3726558685302734,
        -8.7357702255249023,
        -4.5975499153137207
      ],
      "type": "VEC3"
    },
    {
      "bufferView": 2,
      "byteOffset": 375492,
      "componentType": 5126,
      "count": 31291,
      "max": [
        0.99996966123580933,
        0.9999772310256958,
        0.99987196922302246
      ],
      "min": [
        -0.99990540742874146,
        -0.9990696907043457,
        -0.99998313188552856
      ],
      "type": "VEC3"
    },
    {
      "bufferView": 3,
      "componentType": 5126,
      "count": 31291,
      "max": [
        0.99992769956588745,
        0.96487909555435181,
        0.99979418516159058,
        1
      ],
      "min": [
        -0.9997742772102356,
        -0.99997490644454956,
        -0.98906362056732178,
        -1
      ],
      "type": "VEC4"
    },
    {
      "bufferView": 1,
      "componentType": 5126,
      "count": 31291,
      "max": [
        0.99562698602676392,
        0.96390098333358765
      ],
      "min": [
        0,
        0
      ],
      "type": "VEC2"
    },
    {
      "bufferView": 0,
      "componentType": 5125,
      "count": 180714,
      "max": [
        31290
      ],
      "min": [
        0
      ],
      "type": "SCALAR"
    }
  ],
  "asset": {
    "generator": "Sketchfab (OSG glTF plugin)",
    "version": "2.0"
  },
  "bufferViews": [
    {
      "buffer": 0,
      "byteLength": 722856,
      "byteOffset": 0,
      "name": "floatBufferViews",
      "target": 34963
    },
    {
      "buffer": 0,
      "byteLength": 250328,
      "byteOffset": 722856,
      "byteStride": 8,
      "name": "floatBufferViews",
      "target": 34962
    },
    {
      "buffer": 0,
      "byteLength": 750984,
      "byteOffset": 973184,
      "byteStride": 12,
      "name": "floatBufferViews",
      "target": 34962
    },
    {
      "buffer": 0,
      "byteLength": 500656,
      "byteOffset": 1724168,
      "byteStride": 16,
      "name": "floatBufferViews",
      "target": 34962
    }
  ],
  "buffers": [
    {
      "byteLength": 2224824,
      "uri": "scene.bin"
    }
  ],
  "images": [
    {
      "uri": "textures/material_0_baseColor.jpeg"
    }
  ],
  "materials": [
    {
      "doubleSided": true,
      "emissiveFactor": [
        0,
        0,
        0
      ],
      "name": "material_0",
      "pbrMetallicRoughness": {
        "baseColorFactor": [
          1,
          1,
          1,
          1
        ],
        "baseColorTexture": {
          "index": 0,
          "texCoord": 0
        }
      }
    }
  ],
  "meshes": [
    {
      "primitives": [
        {
          "attributes": {
            "NORMAL": 1,
            "POSITION": 0,
            "TANGENT": 2,
            "TEXCOORD_0": 3
          },
          "indices": 4,
          "material": 0,
          "mode": 4
        }
      ]
    }
  ],
  "nodes": [
    {
      "children": [
        1
      ],
      "name": "RootNode (gltf orientation matrix)",
      "rotation": [
        -0.70710678118654746,
        -0,
        -0,
        0.70710678118654757
      ]
    },
    {
      "children": [
        2
      ],
      "matrix": [
        0.99168717861175537,
        0.12781192362308502,
        -0.014855129644274712,
        0,
        0.11035844683647156,
        -0.78548967838287354,
        0.60895568132400513,
        0,
        0.066163241863250732,
        -0.6055329442024231,
        -0.79306513071060181,
        0,
        0.66128456592559814,
        -10.188654899597168,
        1.2803006172180176,
        1
      ],
      "name": "RootNode (model correction matrix)"
    },
    {
      "children": [
        3
      ],
      "name": "model.obj.cleaner"
    },
    {
      "children": [
        4
      ],
      "name": "Geode"
    },
    {
      "mesh": 0,
      "name": ""
    }
  ],
  "samplers": [
    {
      "magFilter": 9729,
      "minFilter": 9987,
      "wrapS": 10497,
      "wrapT": 10497
    }
  ],
  "scene": 0,
  "scenes": [
    {
      "name": "OSG_Scene",
      "nodes": [
        0
      ]
    }
  ],
  "textures": [
    {
      "sampler": 0,
      "source": 0
    }
  ]
}

